<svg width="1500" height="258" viewBox="0 0 1500 258" fill="none" xmlns="http://www.w3.org/2000/svg">
<g clip-path="url(#clip0_4_26)">
<g clip-path="url(#clip1_4_26)">
<path d="M131.118 246.108C138.009 238.033 144.676 230.232 151.338 222.436C149.453 220.567 147.596 220.596 145.827 220.226C114.062 213.585 87.5171 198.446 69.0775 171.231C53.3863 148.072 47.9358 122.291 52.4383 94.5958C54.4162 82.4295 53.83 70.7278 47.7037 59.7027C43.4324 52.016 37.6436 46.0564 29.1631 43.092C20.9895 40.2348 12.8117 37.3896 4.63028 34.555C3.12225 34.0325 1.33118 34.0322 0.271942 31.6995C5.12378 29.3068 10.3732 28.5784 15.5061 27.7608C22.7228 26.6113 29.9983 25.7594 37.2779 25.1076C40.8667 24.7862 43.3799 23.1734 45.8669 20.7429C68.5509 -1.42543 103.184 -6.30348 130.885 8.85477C142.268 15.0833 151.548 23.9692 157.284 35.48C167.687 56.357 184.775 69.6006 204.425 80.7445C225.142 92.4937 245.596 104.744 264.984 118.64C267.612 120.524 269.76 120.054 272.381 119.097C317.448 102.652 361.959 84.7824 406.542 67.0893C419.358 62.0031 431.827 55.8331 445.508 53.1376C453.74 51.5157 461.09 54.3395 464.766 60.4248C468.01 65.7942 467.38 67.8671 461.608 70.2174C435.236 80.9553 408.85 91.6547 382.476 102.387C378.175 104.138 373.914 105.985 369.728 108.108C398.663 101.059 426.599 90.3849 456.366 83.0345C455.232 87.4638 452.594 89.071 450.393 90.893C443.064 96.9577 434.311 100.266 425.426 103.163C383.156 116.946 340.455 129.261 297.457 140.558C295.386 141.102 293.359 141.815 290.263 142.773C297.058 148.447 303.202 153.663 309.454 158.747C311.456 160.374 313.282 158.664 314.949 157.766C328.178 150.632 340.697 142.413 352.438 133.016C354.716 131.193 356.825 129.078 360.008 128.453C350.072 145.398 334.994 156.971 318.33 167.568C325.945 175.455 335.028 181.205 342.209 189.821C335.921 192.847 329.852 192.875 324.045 193.138C307.555 193.885 291.099 192.777 274.724 190.741C272.497 190.464 270.873 191.016 269.195 192.242C248.633 207.266 225.792 216.737 200.544 220.276C198.947 220.5 197.681 221.062 196.667 222.253C189.865 230.244 183.06 238.232 176.287 246.248C175.786 246.841 175.535 247.645 174.796 249.066C185.168 250.604 196.68 247.005 204.664 257.81C166.174 257.81 128.398 257.81 89.559 257.81C93.346 252.145 98.3446 250.103 104.034 249.763C110.847 249.355 117.693 249.327 124.52 249.428C127.328 249.469 129.363 248.644 131.118 246.108ZM81.6627 173.835C96.9454 191.284 115.975 202.834 138.421 208.12C171.437 215.896 203.484 213.18 233.78 196.917C237.949 194.68 242.167 192.409 245.978 188.82C242.056 186.907 238.199 186.864 234.496 186.411C211.823 183.635 189.495 179.304 168.076 171.195C141.731 161.221 119.172 146.348 105.051 120.957C104.966 120.803 104.507 120.857 104.011 120.782C96.325 136.112 85.354 148.865 71.6542 159.365C74.4816 164.657 77.6864 169.081 81.6627 173.835ZM165.911 143.568C178.65 146.583 191.465 149.142 205.848 150.382C196.133 142.699 187.384 135.78 178.634 128.861C178.87 128.39 179.106 127.919 179.342 127.448C219.255 142.042 259.721 154.835 300.984 165.655C300.846 165.041 300.323 164.949 299.946 164.664C281.081 150.405 260.117 139.863 238.631 130.319C209.266 117.274 179.842 104.36 150.329 91.6561C142.244 88.1762 133.78 85.2438 124.798 85.3934C111.19 85.62 105.267 95.4374 111.248 107.6C114.221 113.646 118.437 118.776 123.679 123.056C135.92 133.051 150.254 138.75 165.911 143.568ZM145.959 246.887C145.557 247.444 145.218 248.485 145.823 248.569C150.381 249.203 155.854 250.95 159.229 247.641C166.646 240.369 173.077 232.097 180.09 222.689C174.024 222.794 168.648 220.186 164.606 224.6C158.211 231.582 152.391 239.09 145.959 246.887ZM75.4813 29.225C76.826 33.2081 79.5688 35.1972 83.7715 34.5827C86.3915 34.1996 88.3622 32.7471 88.7752 29.8561C89.329 25.9792 87.7233 23.3948 83.9456 22.4187C79.8237 21.3536 77.3183 23.2336 75.4813 29.225Z" fill="#6A4899"/>
</g>
<path d="M465.2 138.4L463.6 116H577.9V138.4H465.2ZM552.9 244.3L477.1 212.6V168.6C490.033 163.333 503.8 158.433 518.4 153.9C533.067 149.3 547.933 145.5 563 142.5L567.2 167.9C559 169.367 550.733 171.167 542.4 173.3C534.067 175.367 525.867 177.767 517.8 180.5C509.8 183.167 502.2 186.167 495 189.5L506.2 175V210.1L495 194.3L552 218.2L550.3 225.3L548.9 202V159.4L549.4 152.3V133.3H577.9V244.3H552.9ZM566.1 127.2H577.9V170H566.1V127.2ZM566.1 138.4V116H594.1L595.7 138.4H566.1ZM605.019 244V131.9H634.119V244H605.019ZM588.719 138.4L587.219 116H632.419V138.4H588.719ZM622.319 127.2H634.119V170H622.319V127.2ZM622.319 138.4V116H650.219L651.819 138.4H622.319ZM746.369 256.8L659.269 217.9L661.569 192.3L748.569 231.7L746.369 256.8ZM700.969 188.1C687.235 188.1 676.769 185 669.569 178.8C662.369 172.6 658.769 163.7 658.769 152.1V149.3C658.769 137.767 662.369 128.867 669.569 122.6C676.769 116.333 687.135 113.2 700.669 113.2C714.402 113.2 724.869 116.333 732.069 122.6C739.269 128.867 742.869 137.767 742.869 149.3V152.1C742.869 163.7 739.302 172.6 732.169 178.8C725.035 185 714.635 188.1 700.969 188.1ZM700.869 167.3C705.869 167.3 709.669 166 712.269 163.4C714.869 160.733 716.169 156.9 716.169 151.9V149.5C716.169 144.433 714.869 140.567 712.269 137.9C709.669 135.233 705.869 133.9 700.869 133.9C695.802 133.9 691.969 135.233 689.369 137.9C686.769 140.567 685.469 144.433 685.469 149.5V151.9C685.469 156.9 686.769 160.733 689.369 163.4C691.969 166 695.802 167.3 700.869 167.3ZM804.186 229.4C790.586 229.4 780.253 226.233 773.186 219.9C766.186 213.5 762.686 203.933 762.686 191.2V188.5C762.686 175.9 765.953 166.367 772.486 159.9C779.086 153.367 788.486 150.1 800.686 150.1C808.553 150.1 815.153 151.6 820.486 154.6C825.819 157.6 829.386 161.733 831.186 167H832.186C833.453 161.4 835.986 157.2 839.786 154.4C843.586 151.6 848.319 150.2 853.986 150.2C858.386 150.2 862.019 151.067 864.886 152.8C867.819 154.533 869.919 157.067 871.186 160.4L877.086 162.6L867.686 182.3C867.153 179.9 865.919 178.1 863.986 176.9C862.053 175.7 859.719 175.1 856.986 175.1C854.453 175.1 852.353 175.6 850.686 176.6C849.019 177.533 847.753 178.967 846.886 180.9C846.086 182.833 845.653 185.233 845.586 188.1L845.086 198.4H820.686L820.186 188.4C820.053 184.2 818.686 180.933 816.086 178.6C813.486 176.267 810.119 175.1 805.986 175.1C801.186 175.1 797.619 176.333 795.286 178.8C793.019 181.2 791.886 184.667 791.886 189.2V192C791.886 196.6 793.119 200.1 795.586 202.5C798.119 204.833 801.886 206 806.886 206C808.353 206 809.719 205.967 810.986 205.9C812.319 205.767 813.653 205.667 814.986 205.6L812.986 228.8C811.453 229.067 810.019 229.233 808.686 229.3C807.353 229.367 805.853 229.4 804.186 229.4ZM753.086 138.4L751.586 116H896.186V138.3L753.086 138.4ZM867.386 244V175.7L868.386 167.7L867.686 148.7V131.6H896.386V244H867.386ZM884.586 127.2H896.386V170H884.586V127.2ZM884.586 138.4V116H912.586L914.186 138.4H884.586ZM923.573 244V131.9H952.673V244H923.573ZM907.273 138.4L905.773 116H950.973V138.4H907.273ZM940.873 127.2H952.673V170H940.873V127.2ZM940.873 138.4V116H968.773L970.373 138.4H940.873ZM1006.84 169.3V158.6C1006.84 144.267 1010.87 133.2 1018.94 125.4C1027 117.533 1038.74 113.6 1054.14 113.6C1065.34 113.6 1074.27 115.667 1080.94 119.8C1087.67 123.867 1092.07 130 1094.14 138.2H1098.54L1098.14 166.9L1092.94 169.9L1092.24 158.9C1089.57 152.1 1085.74 147.1 1080.74 143.9C1075.74 140.633 1069.54 139 1062.14 139C1054.2 139 1048.17 140.8 1044.04 144.4C1039.9 147.933 1037.84 153.033 1037.84 159.7V167.4L1034.64 158.8L1064.84 177.9L1043.64 192.2L1006.84 169.3ZM1032.14 220.7L1012.74 204.1L1093.44 155.3L1104.54 178.8L1032.14 220.7ZM1092.94 244V146.8H1095.14V116H1121.94V244H1092.94ZM1110.14 127.2H1121.94V170H1110.14V127.2ZM1110.14 138.4V116H1138.14L1139.74 138.4H1110.14ZM1148.96 244V131.9H1178.06V244H1148.96ZM1132.66 138.4L1131.16 116H1176.36V138.4H1132.66ZM1166.26 127.2H1178.06V170H1166.26V127.2ZM1166.26 138.4V116H1194.16L1195.76 138.4H1166.26ZM1272.11 64.1C1280.11 64.1 1287.68 64.6 1294.81 65.6C1301.95 66.5333 1308.71 67.8333 1315.11 69.5C1321.51 71.1 1327.55 73.0333 1333.21 75.3L1335.41 97.5H1334.91C1327.98 95.3 1321.28 93.4667 1314.81 92C1308.35 90.5333 1301.91 89.4667 1295.51 88.8C1289.11 88.0667 1282.51 87.7 1275.71 87.7C1265.78 87.7 1257.75 88.7 1251.61 90.7C1245.48 92.6333 1241.01 95.6333 1238.21 99.7C1235.41 103.767 1234.01 108.967 1234.01 115.3V122H1205.21V113.5C1205.21 102.3 1207.65 93.0667 1212.51 85.8C1217.45 78.5333 1224.85 73.1 1234.71 69.5C1244.65 65.9 1257.11 64.1 1272.11 64.1ZM1205.21 244V131.9H1234.31V244H1205.21ZM1188.91 138.4L1187.41 116H1232.61V138.4H1188.91ZM1222.51 127.2H1234.31V170H1222.51V127.2ZM1222.51 138.4V116H1250.41L1252.01 138.4H1222.51ZM1349.25 244.3L1260.85 215.3V173.7L1281.95 171.6C1289.62 170.867 1295.25 169.167 1298.85 166.5C1302.52 163.767 1304.35 159.8 1304.35 154.6C1304.35 153.2 1304.32 151.5 1304.25 149.5C1304.25 147.433 1304.22 145.267 1304.15 143C1304.09 140.667 1303.99 138.433 1303.85 136.3L1316.25 133.9C1312.79 139.833 1309.42 144.567 1306.15 148.1C1302.89 151.567 1299.42 154.033 1295.75 155.5C1292.15 156.967 1287.99 157.7 1283.25 157.7C1272.72 157.7 1264.65 155 1259.05 149.6C1253.45 144.2 1250.65 136.367 1250.65 126.1V116H1276.95L1277.45 126.4C1277.59 129.333 1278.39 131.5 1279.85 132.9C1281.39 134.233 1283.59 134.9 1286.45 134.9C1288.85 134.9 1290.89 134.333 1292.55 133.2C1294.29 132.067 1296.15 130.067 1298.15 127.2C1300.15 124.333 1302.75 120.367 1305.95 115.3L1330.05 116.9C1330.52 121.3 1330.92 125.533 1331.25 129.6C1331.59 133.667 1331.85 137.767 1332.05 141.9C1332.25 146.033 1332.35 150.367 1332.35 154.9C1332.35 162.9 1330.72 169.533 1327.45 174.8C1324.25 180.067 1319.52 184.2 1313.25 187.2C1307.05 190.133 1299.35 192.067 1290.15 193L1275.55 194.5L1290.65 180.3V208.2L1281.95 197.1L1349.85 219.4L1346.75 225.3L1345.35 202V116H1374.35V244.3H1349.25ZM1362.55 127.2H1374.35V170H1362.55V127.2ZM1362.55 138.4V116H1390.45L1392.05 138.4H1362.55Z" fill="#6A4899"/>
<path d="M514.68 89.32C514.68 93.5867 513.347 96.8133 510.68 99C508.067 101.187 503.427 102.28 496.76 102.28H471.8V51.64H474.92H495.96C500.387 51.64 503.827 52.12 506.28 53.08C508.787 53.9867 510.547 55.3467 511.56 57.16C512.573 58.9733 513.08 61.24 513.08 63.96C513.08 67.6933 512.173 70.6 510.36 72.68C508.6 74.7067 505.267 75.9333 500.36 76.36V76.6C503.987 76.8667 506.84 77.48 508.92 78.44C511 79.3467 512.467 80.68 513.32 82.44C514.227 84.2 514.68 86.4933 514.68 89.32ZM492.44 61.72H484.6V71.64H492.44C495.053 71.64 496.947 71.32 498.12 70.68C499.293 69.9867 499.88 68.6533 499.88 66.68C499.88 64.76 499.293 63.4533 498.12 62.76C496.947 62.0667 495.053 61.72 492.44 61.72ZM494.04 82.12H484.6V92.28H494.04C496.653 92.28 498.547 91.9333 499.72 91.24C500.893 90.4933 501.48 89.1333 501.48 87.16C501.48 85.1333 500.893 83.8 499.72 83.16C498.547 82.4667 496.653 82.12 494.04 82.12ZM521.878 102.28V51.64H559.478V62.04H534.678V71.64H556.198V82.04H534.678V91.88H559.478V102.28H521.878ZM598.663 51.64H611.463V102.28H598.743L584.343 80.84C583.223 79.1333 582.289 77.6933 581.543 76.52C580.796 75.3467 580.103 74.1733 579.463 73C578.823 71.8267 578.103 70.44 577.303 68.84L577.063 69.16C577.809 71.72 578.263 74.12 578.423 76.36C578.583 78.5467 578.663 80.68 578.663 82.76V102.28H565.863V51.64H578.583L592.983 73.08C594.103 74.7333 595.036 76.1733 595.783 77.4C596.529 78.5733 597.223 79.7467 597.863 80.92C598.503 82.0933 599.223 83.48 600.023 85.08L600.263 84.76C599.729 82.52 599.329 80.36 599.063 78.28C598.796 76.1467 598.663 74.04 598.663 71.96V51.64ZM653.497 87.32C653.497 85.56 653.577 83.96 653.737 82.52L653.577 82.28C652.084 82.4933 650.457 82.6533 648.697 82.76C646.937 82.8133 645.31 82.8133 643.817 82.76V72.36L664.697 72.28V99.48C662.244 100.6 659.444 101.48 656.297 102.12C653.204 102.707 649.257 103 644.457 103C638.057 103 633.044 102.147 629.417 100.44C625.79 98.68 623.23 95.88 621.737 92.04C620.244 88.1467 619.497 82.9733 619.497 76.52C619.497 71.2933 620.084 67 621.257 63.64C622.484 60.28 624.244 57.6933 626.537 55.88C628.884 54.0133 631.737 52.7333 635.097 52.04C638.457 51.2933 642.297 50.92 646.617 50.92C649.177 50.92 651.737 51.0267 654.297 51.24C656.91 51.4533 659.497 51.8533 662.057 52.44V63L661.817 63.16C659.577 62.6267 657.337 62.2533 655.097 62.04C652.91 61.8267 650.697 61.72 648.457 61.72C645.204 61.72 642.35 62.0667 639.897 62.76C637.497 63.4 635.63 64.76 634.297 66.84C632.964 68.92 632.297 72.1467 632.297 76.52C632.297 80.84 632.644 84.1467 633.337 86.44C634.084 88.68 635.444 90.2267 637.417 91.08C639.444 91.88 642.324 92.28 646.057 92.28C646.537 92.28 647.284 92.28 648.297 92.28C649.31 92.2267 650.324 92.1733 651.337 92.12C652.35 92.0667 653.07 91.9867 653.497 91.88V87.32ZM719.919 102.04V102.28H706.319C705.945 101 705.492 99.5333 704.959 97.88C704.479 96.2267 703.945 94.4667 703.359 92.6H686.079C685.012 96.3333 684.025 99.56 683.119 102.28H669.519V102.12L685.919 51.64H703.519L719.919 102.04ZM694.559 60.76C694.025 63.48 693.252 66.7867 692.239 70.68C691.225 74.5733 690.159 78.5467 689.039 82.6H700.479C699.305 78.5467 698.212 74.5733 697.199 70.68C696.185 66.7867 695.412 63.48 694.879 60.76H694.559ZM762.35 91.4V102.28H725.55V51.64H738.35V91.4H762.35ZM834.836 89.32C834.836 93.5867 833.503 96.8133 830.836 99C828.223 101.187 823.583 102.28 816.916 102.28H791.956V51.64H795.076H816.116C820.543 51.64 823.983 52.12 826.436 53.08C828.943 53.9867 830.703 55.3467 831.716 57.16C832.73 58.9733 833.236 61.24 833.236 63.96C833.236 67.6933 832.33 70.6 830.516 72.68C828.756 74.7067 825.423 75.9333 820.516 76.36V76.6C824.143 76.8667 826.996 77.48 829.076 78.44C831.156 79.3467 832.623 80.68 833.476 82.44C834.383 84.2 834.836 86.4933 834.836 89.32ZM812.596 61.72H804.756V71.64H812.596C815.21 71.64 817.103 71.32 818.276 70.68C819.45 69.9867 820.036 68.6533 820.036 66.68C820.036 64.76 819.45 63.4533 818.276 62.76C817.103 62.0667 815.21 61.72 812.596 61.72ZM814.196 82.12H804.756V92.28H814.196C816.81 92.28 818.703 91.9333 819.876 91.24C821.05 90.4933 821.636 89.1333 821.636 87.16C821.636 85.1333 821.05 83.8 819.876 83.16C818.703 82.4667 816.81 82.12 814.196 82.12ZM854.834 102.28H842.034V51.64H854.834V102.28ZM877.256 102.28H864.456V51.64H888.616C894.963 51.64 899.576 53.08 902.456 55.96C905.39 58.7867 906.856 62.9733 906.856 68.52C906.856 72.68 905.816 76.2533 903.736 79.24C901.656 82.1733 898.91 84.0133 895.496 84.76L895.416 85C896.75 85.8533 898.216 87.2667 899.816 89.24C901.416 91.2133 902.99 93.3733 904.536 95.72C906.136 98.0133 907.55 100.173 908.776 102.2V102.28H893.896L885.256 89.48C884.51 88.36 883.896 87.56 883.416 87.08C882.99 86.6 882.456 86.3067 881.816 86.2C881.23 86.0933 880.27 86.04 878.936 86.04H877.256V102.28ZM886.536 62.04H877.256V75.64H886.536C889.203 75.64 891.043 75.1067 892.056 74.04C893.123 72.9733 893.656 71.24 893.656 68.84C893.656 66.44 893.123 64.7067 892.056 63.64C891.043 62.5733 889.203 62.04 886.536 62.04ZM916.019 102.28V51.64H938.179C942.605 51.64 946.312 52.0133 949.299 52.76C952.285 53.4533 954.685 54.7067 956.499 56.52C958.312 58.3333 959.619 60.8667 960.419 64.12C961.219 67.32 961.619 71.4533 961.619 76.52C961.619 81.8 961.219 86.12 960.419 89.48C959.619 92.84 958.312 95.4533 956.499 97.32C954.685 99.1867 952.285 100.493 949.299 101.24C946.312 101.933 942.605 102.28 938.179 102.28H916.019ZM936.339 62.44H928.819V91.48H936.339C939.432 91.48 941.859 91.1333 943.619 90.44C945.432 89.7467 946.712 88.3333 947.459 86.2C948.259 84.0667 948.659 80.84 948.659 76.52C948.659 72.4133 948.259 69.3733 947.459 67.4C946.712 65.3733 945.432 64.04 943.619 63.4C941.859 62.76 939.432 62.44 936.339 62.44Z" fill="#6A4899"/>
</g>
<defs>
<clipPath id="clip0_4_26">
<rect width="1500" height="258" fill="white"/>
</clipPath>
<clipPath id="clip1_4_26">
<rect width="467" height="258" fill="white"/>
</clipPath>
</defs>
</svg>
