<svg width="467" height="258" viewBox="0 0 467 258" fill="none" xmlns="http://www.w3.org/2000/svg">
<g clip-path="url(#clip0_4_23)">
<path d="M131.118 246.108C138.009 238.033 144.676 230.232 151.338 222.436C149.453 220.567 147.596 220.596 145.827 220.226C114.062 213.585 87.5171 198.446 69.0775 171.231C53.3863 148.072 47.9358 122.291 52.4383 94.5958C54.4162 82.4295 53.83 70.7278 47.7037 59.7027C43.4324 52.016 37.6436 46.0564 29.1631 43.092C20.9895 40.2348 12.8117 37.3896 4.63028 34.555C3.12225 34.0325 1.33118 34.0322 0.271942 31.6995C5.12378 29.3068 10.3732 28.5784 15.5061 27.7608C22.7228 26.6113 29.9983 25.7594 37.2779 25.1076C40.8667 24.7862 43.3799 23.1734 45.8669 20.7429C68.5509 -1.42543 103.184 -6.30348 130.885 8.85477C142.268 15.0833 151.548 23.9692 157.284 35.48C167.687 56.357 184.775 69.6006 204.425 80.7445C225.142 92.4937 245.596 104.744 264.984 118.64C267.612 120.524 269.76 120.054 272.381 119.097C317.448 102.652 361.959 84.7824 406.542 67.0893C419.358 62.0031 431.827 55.8331 445.508 53.1376C453.74 51.5157 461.09 54.3395 464.766 60.4248C468.01 65.7942 467.38 67.8671 461.608 70.2174C435.236 80.9553 408.85 91.6547 382.476 102.387C378.175 104.138 373.914 105.985 369.728 108.108C398.663 101.059 426.599 90.3849 456.366 83.0345C455.232 87.4638 452.594 89.071 450.393 90.893C443.064 96.9577 434.311 100.266 425.426 103.163C383.156 116.946 340.455 129.261 297.457 140.558C295.386 141.102 293.359 141.815 290.263 142.773C297.058 148.447 303.202 153.663 309.454 158.747C311.456 160.374 313.282 158.664 314.949 157.766C328.178 150.632 340.697 142.413 352.438 133.016C354.716 131.193 356.825 129.078 360.008 128.453C350.072 145.398 334.994 156.971 318.33 167.568C325.945 175.455 335.028 181.205 342.209 189.821C335.921 192.847 329.852 192.875 324.045 193.138C307.555 193.885 291.099 192.777 274.724 190.741C272.497 190.464 270.873 191.016 269.195 192.242C248.633 207.266 225.792 216.737 200.544 220.276C198.947 220.5 197.681 221.062 196.667 222.253C189.865 230.244 183.06 238.232 176.287 246.248C175.786 246.841 175.535 247.645 174.796 249.066C185.168 250.604 196.68 247.005 204.664 257.81C166.174 257.81 128.398 257.81 89.559 257.81C93.346 252.145 98.3446 250.103 104.034 249.763C110.847 249.355 117.693 249.327 124.52 249.428C127.328 249.469 129.363 248.644 131.118 246.108ZM81.6627 173.835C96.9454 191.284 115.975 202.834 138.421 208.12C171.437 215.896 203.484 213.18 233.78 196.917C237.949 194.68 242.167 192.409 245.978 188.82C242.056 186.907 238.199 186.864 234.496 186.411C211.823 183.635 189.495 179.304 168.076 171.195C141.731 161.221 119.172 146.348 105.051 120.957C104.966 120.803 104.507 120.857 104.011 120.782C96.325 136.112 85.354 148.865 71.6542 159.365C74.4816 164.657 77.6864 169.081 81.6627 173.835ZM165.911 143.568C178.65 146.583 191.465 149.142 205.848 150.382C196.133 142.699 187.384 135.78 178.634 128.861C178.87 128.39 179.106 127.919 179.342 127.448C219.255 142.042 259.721 154.835 300.984 165.655C300.846 165.041 300.323 164.949 299.946 164.664C281.081 150.405 260.117 139.863 238.631 130.319C209.266 117.274 179.842 104.36 150.329 91.6561C142.244 88.1762 133.78 85.2438 124.798 85.3934C111.19 85.62 105.267 95.4374 111.248 107.6C114.221 113.646 118.437 118.776 123.679 123.056C135.92 133.051 150.254 138.75 165.911 143.568ZM145.959 246.887C145.557 247.444 145.218 248.485 145.823 248.569C150.381 249.203 155.854 250.95 159.229 247.641C166.646 240.369 173.077 232.097 180.09 222.689C174.024 222.794 168.648 220.186 164.606 224.6C158.211 231.582 152.391 239.09 145.959 246.887ZM75.4813 29.225C76.826 33.2081 79.5688 35.1972 83.7715 34.5827C86.3915 34.1996 88.3622 32.7471 88.7752 29.8561C89.329 25.9792 87.7233 23.3948 83.9456 22.4187C79.8237 21.3536 77.3183 23.2336 75.4813 29.225Z" fill="#AA95C9"/>
</g>
<defs>
<clipPath id="clip0_4_23">
<rect width="467" height="258" fill="white"/>
</clipPath>
</defs>
</svg>
