<svg width="926" height="258" viewBox="0 0 926 258" fill="none" xmlns="http://www.w3.org/2000/svg">
<g clip-path="url(#clip0_6_148)">
<path d="M-1.8 123.4L-3.4 101H110.9V123.4H-1.8ZM85.9 229.3L10.1 197.6V153.6C23.0333 148.333 36.8 143.433 51.4 138.9C66.0667 134.3 80.9333 130.5 96 127.5L100.2 152.9C92 154.367 83.7333 156.167 75.4 158.3C67.0667 160.367 58.8667 162.767 50.8 165.5C42.8 168.167 35.2 171.167 28 174.5L39.2 160V195.1L28 179.3L85 203.2L83.3 210.3L81.9 187V144.4L82.4 137.3V118.3H110.9V229.3H85.9ZM99.1 112.2H110.9V155H99.1V112.2ZM99.1 123.4V101H127.1L128.7 123.4H99.1ZM138.019 229V116.9H167.119V229H138.019ZM121.719 123.4L120.219 101H165.419V123.4H121.719ZM155.319 112.2H167.119V155H155.319V112.2ZM155.319 123.4V101H183.219L184.819 123.4H155.319ZM279.369 241.8L192.269 202.9L194.569 177.3L281.569 216.7L279.369 241.8ZM233.969 173.1C220.235 173.1 209.769 170 202.569 163.8C195.369 157.6 191.769 148.7 191.769 137.1V134.3C191.769 122.767 195.369 113.867 202.569 107.6C209.769 101.333 220.135 98.2 233.669 98.2C247.402 98.2 257.869 101.333 265.069 107.6C272.269 113.867 275.869 122.767 275.869 134.3V137.1C275.869 148.7 272.302 157.6 265.169 163.8C258.035 170 247.635 173.1 233.969 173.1ZM233.869 152.3C238.869 152.3 242.669 151 245.269 148.4C247.869 145.733 249.169 141.9 249.169 136.9V134.5C249.169 129.433 247.869 125.567 245.269 122.9C242.669 120.233 238.869 118.9 233.869 118.9C228.802 118.9 224.969 120.233 222.369 122.9C219.769 125.567 218.469 129.433 218.469 134.5V136.9C218.469 141.9 219.769 145.733 222.369 148.4C224.969 151 228.802 152.3 233.869 152.3ZM337.186 214.4C323.586 214.4 313.253 211.233 306.186 204.9C299.186 198.5 295.686 188.933 295.686 176.2V173.5C295.686 160.9 298.953 151.367 305.486 144.9C312.086 138.367 321.486 135.1 333.686 135.1C341.553 135.1 348.153 136.6 353.486 139.6C358.819 142.6 362.386 146.733 364.186 152H365.186C366.453 146.4 368.986 142.2 372.786 139.4C376.586 136.6 381.319 135.2 386.986 135.2C391.386 135.2 395.019 136.067 397.886 137.8C400.819 139.533 402.919 142.067 404.186 145.4L410.086 147.6L400.686 167.3C400.153 164.9 398.919 163.1 396.986 161.9C395.053 160.7 392.719 160.1 389.986 160.1C387.453 160.1 385.353 160.6 383.686 161.6C382.019 162.533 380.753 163.967 379.886 165.9C379.086 167.833 378.653 170.233 378.586 173.1L378.086 183.4H353.686L353.186 173.4C353.053 169.2 351.686 165.933 349.086 163.6C346.486 161.267 343.119 160.1 338.986 160.1C334.186 160.1 330.619 161.333 328.286 163.8C326.019 166.2 324.886 169.667 324.886 174.2V177C324.886 181.6 326.119 185.1 328.586 187.5C331.119 189.833 334.886 191 339.886 191C341.353 191 342.719 190.967 343.986 190.9C345.319 190.767 346.653 190.667 347.986 190.6L345.986 213.8C344.453 214.067 343.019 214.233 341.686 214.3C340.353 214.367 338.853 214.4 337.186 214.4ZM286.086 123.4L284.586 101H429.186V123.3L286.086 123.4ZM400.386 229V160.7L401.386 152.7L400.686 133.7V116.6H429.386V229H400.386ZM417.586 112.2H429.386V155H417.586V112.2ZM417.586 123.4V101H445.586L447.186 123.4H417.586ZM456.573 229V116.9H485.673V229H456.573ZM440.273 123.4L438.773 101H483.973V123.4H440.273ZM473.873 112.2H485.673V155H473.873V112.2ZM473.873 123.4V101H501.773L503.373 123.4H473.873ZM539.836 154.3V143.6C539.836 129.267 543.869 118.2 551.936 110.4C560.003 102.533 571.736 98.6 587.136 98.6C598.336 98.6 607.269 100.667 613.936 104.8C620.669 108.867 625.069 115 627.136 123.2H631.536L631.136 151.9L625.936 154.9L625.236 143.9C622.569 137.1 618.736 132.1 613.736 128.9C608.736 125.633 602.536 124 595.136 124C587.203 124 581.169 125.8 577.036 129.4C572.903 132.933 570.836 138.033 570.836 144.7V152.4L567.636 143.8L597.836 162.9L576.636 177.2L539.836 154.3ZM565.136 205.7L545.736 189.1L626.436 140.3L637.536 163.8L565.136 205.7ZM625.936 229V131.8H628.136V101H654.936V229H625.936ZM643.136 112.2H654.936V155H643.136V112.2ZM643.136 123.4V101H671.136L672.736 123.4H643.136ZM681.964 229V116.9H711.064V229H681.964ZM665.664 123.4L664.164 101H709.364V123.4H665.664ZM699.264 112.2H711.064V155H699.264V112.2ZM699.264 123.4V101H727.164L728.764 123.4H699.264ZM805.114 49.1C813.114 49.1 820.681 49.6 827.814 50.6C834.947 51.5333 841.714 52.8333 848.114 54.5C854.514 56.1 860.547 58.0333 866.214 60.3L868.414 82.5H867.914C860.981 80.3 854.281 78.4667 847.814 77C841.347 75.5333 834.914 74.4667 828.514 73.8C822.114 73.0667 815.514 72.7 808.714 72.7C798.781 72.7 790.747 73.7 784.614 75.7C778.481 77.6333 774.014 80.6333 771.214 84.7C768.414 88.7667 767.014 93.9667 767.014 100.3V107H738.214V98.5C738.214 87.3 740.647 78.0667 745.514 70.8C750.447 63.5333 757.847 58.1 767.714 54.5C777.647 50.9 790.114 49.1 805.114 49.1ZM738.214 229V116.9H767.314V229H738.214ZM721.914 123.4L720.414 101H765.614V123.4H721.914ZM755.514 112.2H767.314V155H755.514V112.2ZM755.514 123.4V101H783.414L785.014 123.4H755.514ZM882.255 229.3L793.855 200.3V158.7L814.955 156.6C822.621 155.867 828.255 154.167 831.855 151.5C835.521 148.767 837.355 144.8 837.355 139.6C837.355 138.2 837.321 136.5 837.255 134.5C837.255 132.433 837.221 130.267 837.155 128C837.088 125.667 836.988 123.433 836.855 121.3L849.255 118.9C845.788 124.833 842.421 129.567 839.155 133.1C835.888 136.567 832.421 139.033 828.755 140.5C825.155 141.967 820.988 142.7 816.255 142.7C805.721 142.7 797.655 140 792.055 134.6C786.455 129.2 783.655 121.367 783.655 111.1V101H809.955L810.455 111.4C810.588 114.333 811.388 116.5 812.855 117.9C814.388 119.233 816.588 119.9 819.455 119.9C821.855 119.9 823.888 119.333 825.555 118.2C827.288 117.067 829.155 115.067 831.155 112.2C833.155 109.333 835.755 105.367 838.955 100.3L863.055 101.9C863.521 106.3 863.921 110.533 864.255 114.6C864.588 118.667 864.855 122.767 865.055 126.9C865.255 131.033 865.355 135.367 865.355 139.9C865.355 147.9 863.721 154.533 860.455 159.8C857.255 165.067 852.521 169.2 846.255 172.2C840.055 175.133 832.355 177.067 823.155 178L808.555 179.5L823.655 165.3V193.2L814.955 182.1L882.855 204.4L879.755 210.3L878.355 187V101H907.355V229.3H882.255ZM895.555 112.2H907.355V155H895.555V112.2ZM895.555 123.4V101H923.455L925.055 123.4H895.555Z" fill="#AA95C9"/>
<path d="M47.68 74.32C47.68 78.5867 46.3467 81.8133 43.68 84C41.0667 86.1867 36.4267 87.28 29.76 87.28H4.8V36.64H7.92H28.96C33.3867 36.64 36.8267 37.12 39.28 38.08C41.7867 38.9867 43.5467 40.3467 44.56 42.16C45.5733 43.9733 46.08 46.24 46.08 48.96C46.08 52.6933 45.1733 55.6 43.36 57.68C41.6 59.7067 38.2667 60.9333 33.36 61.36V61.6C36.9867 61.8667 39.84 62.48 41.92 63.44C44 64.3467 45.4667 65.68 46.32 67.44C47.2267 69.2 47.68 71.4933 47.68 74.32ZM25.44 46.72H17.6V56.64H25.44C28.0533 56.64 29.9467 56.32 31.12 55.68C32.2933 54.9867 32.88 53.6533 32.88 51.68C32.88 49.76 32.2933 48.4533 31.12 47.76C29.9467 47.0667 28.0533 46.72 25.44 46.72ZM27.04 67.12H17.6V77.28H27.04C29.6533 77.28 31.5467 76.9333 32.72 76.24C33.8933 75.4933 34.48 74.1333 34.48 72.16C34.48 70.1333 33.8933 68.8 32.72 68.16C31.5467 67.4667 29.6533 67.12 27.04 67.12ZM54.8781 87.28V36.64H92.4781V47.04H67.6781V56.64H89.1981V67.04H67.6781V76.88H92.4781V87.28H54.8781ZM131.663 36.64H144.463V87.28H131.743L117.343 65.84C116.223 64.1333 115.289 62.6933 114.543 61.52C113.796 60.3467 113.103 59.1733 112.463 58C111.823 56.8267 111.103 55.44 110.303 53.84L110.063 54.16C110.809 56.72 111.263 59.12 111.423 61.36C111.583 63.5467 111.663 65.68 111.663 67.76V87.28H98.8625V36.64H111.583L125.983 58.08C127.103 59.7333 128.036 61.1733 128.783 62.4C129.529 63.5733 130.223 64.7467 130.863 65.92C131.503 67.0933 132.223 68.48 133.023 70.08L133.263 69.76C132.729 67.52 132.329 65.36 132.063 63.28C131.796 61.1467 131.663 59.04 131.663 56.96V36.64ZM186.497 72.32C186.497 70.56 186.577 68.96 186.737 67.52L186.577 67.28C185.084 67.4933 183.457 67.6533 181.697 67.76C179.937 67.8133 178.31 67.8133 176.817 67.76V57.36L197.697 57.28V84.48C195.244 85.6 192.444 86.48 189.297 87.12C186.204 87.7067 182.257 88 177.457 88C171.057 88 166.044 87.1467 162.417 85.44C158.79 83.68 156.23 80.88 154.737 77.04C153.244 73.1467 152.497 67.9733 152.497 61.52C152.497 56.2933 153.084 52 154.257 48.64C155.484 45.28 157.244 42.6933 159.537 40.88C161.884 39.0133 164.737 37.7333 168.097 37.04C171.457 36.2933 175.297 35.92 179.617 35.92C182.177 35.92 184.737 36.0267 187.297 36.24C189.91 36.4533 192.497 36.8533 195.057 37.44V48L194.817 48.16C192.577 47.6267 190.337 47.2533 188.097 47.04C185.91 46.8267 183.697 46.72 181.457 46.72C178.204 46.72 175.35 47.0667 172.897 47.76C170.497 48.4 168.63 49.76 167.297 51.84C165.964 53.92 165.297 57.1467 165.297 61.52C165.297 65.84 165.644 69.1467 166.337 71.44C167.084 73.68 168.444 75.2267 170.417 76.08C172.444 76.88 175.324 77.28 179.057 77.28C179.537 77.28 180.284 77.28 181.297 77.28C182.31 77.2267 183.324 77.1733 184.337 77.12C185.35 77.0667 186.07 76.9867 186.497 76.88V72.32ZM252.919 87.04V87.28H239.319C238.945 86 238.492 84.5333 237.959 82.88C237.479 81.2267 236.945 79.4667 236.359 77.6H219.079C218.012 81.3333 217.025 84.56 216.119 87.28H202.519V87.12L218.919 36.64H236.519L252.919 87.04ZM227.559 45.76C227.025 48.48 226.252 51.7867 225.239 55.68C224.225 59.5733 223.159 63.5467 222.039 67.6H233.479C232.305 63.5467 231.212 59.5733 230.199 55.68C229.185 51.7867 228.412 48.48 227.879 45.76H227.559ZM295.35 76.4V87.28H258.55V36.64H271.35V76.4H295.35ZM367.836 74.32C367.836 78.5867 366.503 81.8133 363.836 84C361.223 86.1867 356.583 87.28 349.916 87.28H324.956V36.64H328.076H349.116C353.543 36.64 356.983 37.12 359.436 38.08C361.943 38.9867 363.703 40.3467 364.716 42.16C365.73 43.9733 366.236 46.24 366.236 48.96C366.236 52.6933 365.33 55.6 363.516 57.68C361.756 59.7067 358.423 60.9333 353.516 61.36V61.6C357.143 61.8667 359.996 62.48 362.076 63.44C364.156 64.3467 365.623 65.68 366.476 67.44C367.383 69.2 367.836 71.4933 367.836 74.32ZM345.596 46.72H337.756V56.64H345.596C348.21 56.64 350.103 56.32 351.276 55.68C352.45 54.9867 353.036 53.6533 353.036 51.68C353.036 49.76 352.45 48.4533 351.276 47.76C350.103 47.0667 348.21 46.72 345.596 46.72ZM347.196 67.12H337.756V77.28H347.196C349.81 77.28 351.703 76.9333 352.876 76.24C354.05 75.4933 354.636 74.1333 354.636 72.16C354.636 70.1333 354.05 68.8 352.876 68.16C351.703 67.4667 349.81 67.12 347.196 67.12ZM387.834 87.28H375.034V36.64H387.834V87.28ZM410.256 87.28H397.456V36.64H421.616C427.963 36.64 432.576 38.08 435.456 40.96C438.39 43.7867 439.856 47.9733 439.856 53.52C439.856 57.68 438.816 61.2533 436.736 64.24C434.656 67.1733 431.91 69.0133 428.496 69.76L428.416 70C429.75 70.8533 431.216 72.2667 432.816 74.24C434.416 76.2133 435.99 78.3733 437.536 80.72C439.136 83.0133 440.55 85.1733 441.776 87.2V87.28H426.896L418.256 74.48C417.51 73.36 416.896 72.56 416.416 72.08C415.99 71.6 415.456 71.3067 414.816 71.2C414.23 71.0933 413.27 71.04 411.936 71.04H410.256V87.28ZM419.536 47.04H410.256V60.64H419.536C422.203 60.64 424.043 60.1067 425.056 59.04C426.123 57.9733 426.656 56.24 426.656 53.84C426.656 51.44 426.123 49.7067 425.056 48.64C424.043 47.5733 422.203 47.04 419.536 47.04ZM449.019 87.28V36.64H471.179C475.605 36.64 479.312 37.0133 482.299 37.76C485.285 38.4533 487.685 39.7067 489.499 41.52C491.312 43.3333 492.619 45.8667 493.419 49.12C494.219 52.32 494.619 56.4533 494.619 61.52C494.619 66.8 494.219 71.12 493.419 74.48C492.619 77.84 491.312 80.4533 489.499 82.32C487.685 84.1867 485.285 85.4933 482.299 86.24C479.312 86.9333 475.605 87.28 471.179 87.28H449.019ZM469.339 47.44H461.819V76.48H469.339C472.432 76.48 474.859 76.1333 476.619 75.44C478.432 74.7467 479.712 73.3333 480.459 71.2C481.259 69.0667 481.659 65.84 481.659 61.52C481.659 57.4133 481.259 54.3733 480.459 52.4C479.712 50.3733 478.432 49.04 476.619 48.4C474.859 47.76 472.432 47.44 469.339 47.44Z" fill="#AA95C9"/>
</g>
<defs>
<clipPath id="clip0_6_148">
<rect width="926" height="258" fill="white"/>
</clipPath>
</defs>
</svg>
